<?xml version="1.0" encoding="UTF-8" standalone="no"?>
<!-- Created with Inkscape (http://www.inkscape.org/) -->

<svg
   xmlns:dc="http://purl.org/dc/elements/1.1/"
   xmlns:cc="http://creativecommons.org/ns#"
   xmlns:rdf="http://www.w3.org/1999/02/22-rdf-syntax-ns#"
   xmlns:svg="http://www.w3.org/2000/svg"
   xmlns="http://www.w3.org/2000/svg"
   xmlns:sodipodi="http://sodipodi.sourceforge.net/DTD/sodipodi-0.dtd"
   xmlns:inkscape="http://www.inkscape.org/namespaces/inkscape"
   id="svg3390"
   version="1.1"
   inkscape:version="0.91 r13725"
   width="328.75"
   height="328.75"
   viewBox="0 0 328.75 328.75"
   sodipodi:docname="instagram.svg">
  <metadata
     id="metadata3396">
    <rdf:RDF>
      <cc:Work
         rdf:about="">
        <dc:format>image/svg+xml</dc:format>
        <dc:type
           rdf:resource="http://purl.org/dc/dcmitype/StillImage" />
        <dc:title></dc:title>
      </cc:Work>
    </rdf:RDF>
  </metadata>
  <defs
     id="defs3394" />
  <sodipodi:namedview
     pagecolor="#ffffff"
     bordercolor="#666666"
     borderopacity="1"
     objecttolerance="10"
     gridtolerance="10"
     guidetolerance="10"
     inkscape:pageopacity="0"
     inkscape:pageshadow="2"
     inkscape:window-width="1239"
     inkscape:window-height="764"
     id="namedview3392"
     showgrid="false"
     inkscape:zoom="1.6821293"
     inkscape:cx="164.375"
     inkscape:cy="164.375"
     inkscape:window-x="0"
     inkscape:window-y="0"
     inkscape:window-maximized="0"
     inkscape:current-layer="svg3390" />
  <path
     style="fill:#000000"
     d="M 48.581232,305.29891 C 36.542618,302.51707 28.560789,296.33416 23.778386,286.08605 l -3.022526,-6.47691 0,-117.87961 0,-117.879625 3.020533,-6.486333 C 27.0669,30.297493 34.284149,23.175808 40.996978,20.37101 c 6.399441,-2.673859 240.724272,-2.639556 247.128182,0.03618 6.78184,2.833627 14.41982,10.533436 17.4606,17.601913 l 2.77197,6.443653 -0.3502,118.873577 -0.35019,118.87358 -2.80109,5.18151 c -3.62321,6.70227 -10.1126,12.869 -16.62963,15.80277 -4.85538,2.18573 -12.47928,2.34455 -121.11808,2.52297 -63.76509,0.10466 -117.10239,-0.0791 -118.527308,-0.40825 z m 222.257398,-36.60086 3.78649,-3.78648 0,-62.27792 0,-62.27791 -11.33458,-4.3e-4 -11.33458,-4.4e-4 0,19.755 c 0,16.81281 -0.42788,21.10546 -2.87305,28.82264 -5.83796,18.4253 -20.43622,37.19738 -37.47516,48.18981 -22.93797,14.79813 -57.61126,17.37226 -82.96565,6.15936 C 111.92996,235.89076 94.658863,219.85606 86.322149,203.99126 78.375811,188.86935 76.020257,177.50387 76.696993,157.5501 l 0.583149,-17.19436 -11.434849,0 -11.434848,0 0,62.71081 0,62.71079 3.985528,3.35362 3.985531,3.35359 102.335316,0 102.33532,0 3.78649,-3.7865 z m -83.90868,-56.7835 c 5.70848,-2.6729 11.44028,-6.76099 16.27909,-11.61068 34.4451,-34.52252 10.02007,-93.62802 -38.69125,-93.62802 -27.09747,0 -50.60515,20.21414 -54.23185,46.6337 -3.7729,27.48461 11.23663,51.65033 38.02266,61.21743 4.86377,1.73717 9.42031,2.21818 18.15225,1.91621 9.89452,-0.34217 12.99147,-1.02734 20.4691,-4.52864 z m 83.90868,-109.0252 3.78649,-3.786482 0,-20.710588 0,-20.710578 -3.98554,-3.353601 c -3.89605,-3.27833 -4.41718,-3.353603 -23.21744,-3.353603 -18.80027,0 -19.32139,0.07528 -23.21746,3.353602 l -3.98554,3.353602 0,21.032826 c 0,20.162533 0.12059,21.142536 2.91461,23.684502 4.30921,3.92048 5.17707,4.06335 25.35957,4.17457 l 18.55882,0.10228 3.78649,-3.78651 z"
     id="path3400"
     inkscape:connector-curvature="0" />
</svg>
